<?xml version="1.0" standalone="no"?>
<!DOCTYPE svg PUBLIC "-//W3C//DTD SVG 20010904//EN"
 "http://www.w3.org/TR/2001/REC-SVG-20010904/DTD/svg10.dtd">
<svg version="1.0" xmlns="http://www.w3.org/2000/svg"
 width="500.000000pt" height="500.000000pt" viewBox="0 0 500.000000 500.000000"
 preserveAspectRatio="xMidYMid meet">
<metadata>
Created by potrace 1.15, written by Peter Selinger 2001-2017
</metadata>
<g transform="translate(0.000000,500.000000) scale(0.100000,-0.100000)"
fill="#000000" stroke="none">
<path d="M130 2495 l0 -2365 2365 0 2365 0 0 2365 0 2365 -2365 0 -2365 0 0
-2365z m4590 0 l0 -2225 -2225 0 -2225 0 0 2225 0 2225 2225 0 2225 0 0 -2225z"/>
<path d="M1518 4093 c-33 -38 -412 -589 -421 -615 -7 -17 -7 -34 -1 -46 19
-42 1359 -1573 1380 -1578 13 -3 31 -3 42 0 23 8 1363 1547 1376 1581 6 16 6
32 -1 47 -12 26 -396 583 -420 611 -15 16 -75 17 -978 17 -904 0 -963 -1 -977
-17z m757 -152 c-65 -61 -298 -251 -305 -249 -9 3 -190 253 -190 262 0 3 116
6 257 6 252 0 257 0 238 -19z m935 13 c0 -9 -181 -259 -190 -262 -7 -2 -240
188 -305 249 -19 19 -14 19 238 19 141 0 257 -3 257 -6z m-1460 -204 l141
-195 -78 -3 c-43 -1 -171 1 -284 5 l-205 8 134 193 c74 106 138 191 143 190 5
-2 72 -91 149 -198z m1010 -25 c91 -76 165 -143 165 -149 0 -8 -132 -12 -433
-14 -345 -2 -433 0 -430 10 3 7 101 95 219 195 l214 181 50 -42 c28 -23 124
-105 215 -181z m774 30 l133 -190 -206 -8 c-113 -4 -241 -6 -284 -5 l-77 3
142 198 c78 108 146 196 150 195 5 -2 68 -89 142 -193z m-1490 -767 c245 -695
258 -734 243 -718 -8 8 -225 258 -482 555 -257 297 -477 550 -488 563 l-20 22
299 0 300 0 148 -422z m896 418 c0 -6 -441 -1260 -444 -1264 -2 -1 -101 278
-221 620 -120 343 -220 629 -223 636 -3 9 89 12 442 12 245 0 446 -2 446 -4z
m733 -18 c-11 -13 -231 -266 -488 -563 -257 -297 -474 -547 -482 -555 -15 -16
4 41 244 723 l148 417 299 0 299 0 -20 -22z"/>
<path d="M1891 1558 c-92 -237 -194 -495 -206 -518 -9 -17 -24 -36 -35 -43
-35 -21 -22 -27 65 -27 89 0 108 9 53 25 -29 9 -33 14 -36 51 -2 24 6 64 18
97 l21 57 93 0 93 0 32 -85 c37 -98 37 -119 -2 -123 -15 -2 -27 -8 -27 -13 0
-5 56 -9 130 -9 72 0 130 2 130 5 0 2 -10 15 -23 27 -22 22 -44 75 -187 446
-50 128 -53 132 -81 132 -21 0 -32 -6 -38 -22z m17 -218 c17 -47 33 -93 37
-102 6 -16 -1 -18 -80 -18 -48 0 -85 4 -83 8 2 5 21 54 42 110 22 56 43 99 46
95 4 -5 21 -46 38 -93z"/>
<path d="M2240 1572 c0 -4 14 -13 30 -19 l30 -11 0 -264 c0 -274 -2 -288 -42
-288 -10 0 -18 -4 -18 -10 0 -6 50 -10 130 -10 80 0 130 4 130 10 0 6 -8 10
-18 10 -36 0 -42 20 -42 147 l0 123 33 0 c66 0 79 -21 111 -180 20 -93 37
-112 110 -118 44 -4 62 0 90 18 20 12 33 26 30 32 -4 6 -10 6 -17 -1 -19 -19
-44 -12 -55 17 -6 15 -16 52 -23 82 -21 98 -45 125 -124 144 -29 7 -29 8 23
25 61 21 85 40 106 86 47 99 -8 180 -138 204 -68 13 -346 15 -346 3z m320 -40
c32 -32 45 -91 35 -154 -11 -62 -51 -98 -109 -98 l-46 0 0 128 c0 86 4 132 12
140 22 22 77 14 108 -16z"/>
<path d="M2819 1576 c-7 -7 2 -206 10 -206 4 0 15 27 25 60 25 83 74 130 137
130 18 0 19 -10 19 -269 0 -297 -1 -301 -61 -301 -16 0 -29 -4 -29 -10 0 -6
60 -10 160 -10 100 0 160 4 160 10 0 6 -12 10 -26 10 -14 0 -34 5 -45 10 -18
10 -19 24 -19 287 l0 276 38 -6 c50 -8 96 -60 117 -131 9 -31 21 -56 26 -56 5
0 9 47 9 105 l0 105 -258 0 c-142 0 -261 -2 -263 -4z"/>
</g>
</svg>
